<svg width="3844" height="2817" viewBox="0 0 3844 2817" fill="none" xmlns="http://www.w3.org/2000/svg">
<ellipse cx="1928.42" cy="1421.44" rx="1602.92" ry="622.109" transform="rotate(-27.3402 1928.42 1421.44)" stroke="#18184C" stroke-width="20" stroke-linecap="round"/>
<ellipse cx="1921.53" cy="1408.13" rx="1833.77" ry="637.096" transform="rotate(-27.3402 1921.53 1408.13)" stroke="#18184C" stroke-width="20" stroke-linecap="round"/>
<ellipse cx="1934.56" cy="1433.33" rx="1506.21" ry="608.734" transform="rotate(-27.3402 1934.56 1433.33)" fill="#1C1C49"/>
<ellipse cx="1934.56" cy="1433.33" rx="1506.21" ry="608.734" transform="rotate(-27.3402 1934.56 1433.33)" fill="#1C1C49"/>
<ellipse cx="1901.22" cy="1368.84" rx="1103.54" ry="506.204" transform="rotate(-27.3402 1901.22 1368.84)" fill="#262560"/>
<ellipse cx="1877.53" cy="1323.03" rx="969.636" ry="429.147" transform="rotate(-27 1877.53 1323.03)" fill="#424186"/>
<path d="M1487.25 1253.4C1519.37 1144.81 1583.91 1051.31 1682.28 993.223C1808.51 918.691 1962.75 939.159 2071.51 976.809C2186.26 1016.53 2304.09 931.488 2421.5 933C2595.65 935.243 2559.04 1092.36 2482.29 1203.82C2296.63 1473.43 1947.18 1656.29 1580.59 1717.09C1244.16 1772.88 1093.54 1662.2 1224.36 1508.74C1291.89 1429.52 1455.12 1361.99 1487.25 1253.4Z" fill="#65649E"/>
<path d="M1503.02 1260.76C1525.82 1169.01 1584 1070.67 1680.49 1014.43C1821.8 932.076 1959.08 963.836 2064.28 996.841C2161.95 1027.48 2265.19 985.372 2326.94 979.712C2449.83 968.447 2454.22 1060.24 2377.33 1171.57C2279.4 1313.36 1967.78 1546.09 1609.13 1614.37C1300.82 1673.06 1199.5 1569 1324.03 1458.38C1382.17 1406.72 1480.22 1352.51 1503.02 1260.76Z" fill="#E4B6A5"/>
<path d="M1532.74 1234.93C1554.14 1133.94 1650.46 1051.16 1692.96 1029.67C1788.9 970.559 1906.4 966.559 2009.42 1008.4C2112.45 1050.24 2180.91 1024.71 2217.84 1025.73C2323.42 1028.64 2318.65 1115.41 2229.81 1198.8C2058.74 1359.36 1905.62 1459 1576.31 1519.5C1373.78 1556.71 1375.93 1465.93 1403.86 1425.19C1459.59 1358.24 1509.11 1346.38 1532.74 1234.93Z" fill="#EDCBB9"/>
<path d="M1719.05 1038.32C1544.47 1125.79 1540.01 1304.34 1575.85 1410.31C1582.85 1431.02 1604.57 1441.95 1625.98 1437.57C1797.53 1402.49 1954.55 1318.85 2088.84 1204.91C2105.98 1190.36 2110.79 1165.74 2098.25 1147.07C2034.02 1051.43 1893.76 950.782 1719.05 1038.32Z" fill="#FAF9F1"/>
<path d="M1299.5 1531C1285.43 1648.74 1710.98 1617.87 2063 1400" stroke="#EDCBB9" stroke-width="20" stroke-linecap="round" stroke-linejoin="round"/>
<path d="M1701.72 1465.49C1822.8 1440.07 2058.69 1344.4 2213.39 1177.1" stroke="#FAF9F1" stroke-width="20" stroke-linecap="round" stroke-linejoin="round"/>
<path d="M1129.44 1403.49C1038.36 1519.44 930.245 1756.7 1162.84 1843.8C1453.59 1952.69 1956.56 1764.67 2203.31 1600.17" stroke="#6665B0" stroke-width="20" stroke-linecap="round" stroke-linejoin="round"/>
<path d="M1204.84 1608.21C1206.24 1749.32 1607.03 1719.93 1916.5 1596" stroke="#7D7CC2" stroke-width="20" stroke-linecap="round" stroke-linejoin="round"/>
<circle cx="2203" cy="1600" r="10" fill="white"/>
<circle cx="2063" cy="1400" r="10" fill="white"/>
<circle cx="2343" cy="588.006" r="10" fill="white"/>
<circle cx="2118" cy="779.006" r="10" fill="white"/>
<circle cx="1917" cy="1595" r="10" fill="white"/>
<circle cx="2444" cy="1585" r="10" fill="white"/>
<circle cx="1569" cy="972.006" r="10" fill="white"/>
<path d="M1310 1528C1310 1533.52 1305.52 1538 1300 1538C1294.48 1538 1290 1533.52 1290 1528C1290 1522.48 1294.48 1518 1300 1518C1305.52 1518 1310 1522.48 1310 1528Z" fill="white"/>
<circle cx="945" cy="1850" r="10" fill="white"/>
<circle cx="594" cy="1714" r="10" fill="white"/>
<path d="M964.5 1597.5C937.5 1651 902.077 1741.24 945.127 1850.44" stroke="#424186" stroke-width="20" stroke-linecap="round" stroke-linejoin="round"/>
<path d="M1218.72 1188.49C978.091 1372.69 732.215 1591.99 656.965 1835.99" stroke="#262560" stroke-width="20" stroke-linecap="round" stroke-linejoin="round"/>
<path d="M2035 1831.06C2113.9 1797.67 2335 1690 2443.5 1585" stroke="#424186" stroke-width="20" stroke-linecap="round" stroke-linejoin="round"/>
</svg>
