<svg width="2654" height="2654" viewBox="0 0 2654 2654" fill="none" xmlns="http://www.w3.org/2000/svg">
<circle cx="1326.8" cy="1326.8" r="1290" fill="#08073F"/>
<circle cx="1326.57" cy="1326.57" r="1129.59" fill="#16154B"/>
<circle cx="1326.57" cy="1326.57" r="889.584" fill="#262560"/>
<circle cx="1326.57" cy="1326.57" r="736.972" fill="#2C2B6C"/>
<circle cx="1326.57" cy="1326.57" r="526.968" fill="#65649E"/>
<circle cx="1326.57" cy="1326.57" r="391.313" fill="#E4B6A5"/>
<circle cx="1326.57" cy="1326.57" r="434.357" stroke="#EDCBB9" stroke-width="20" stroke-linecap="round" stroke-linejoin="round" stroke-dasharray="20 40 60 40"/>
<circle cx="1326.57" cy="1326.57" r="488.109" transform="rotate(-19.8395 1326.57 1326.57)" stroke="#E5E5E5" stroke-width="20" stroke-linecap="round" stroke-linejoin="round" stroke-dasharray="40 40 80 40 20 60"/>
<circle cx="1326.57" cy="1326.57" r="567.404" stroke="#6665B0" stroke-width="20" stroke-linecap="round" stroke-linejoin="round" stroke-dasharray="20 40 60 40"/>
<circle cx="1326.57" cy="1326.57" r="693.479" transform="rotate(-0.819541 1326.57 1326.57)" stroke="#46459D" stroke-width="20" stroke-linecap="round" stroke-linejoin="round" stroke-dasharray="30 30 90 40"/>
<circle cx="1326.57" cy="1326.57" r="787.843" stroke="#3A398E" stroke-width="20" stroke-linecap="round" stroke-linejoin="round" stroke-dasharray="20 40 60 40"/>
<circle cx="1326.57" cy="1326.57" r="841.625" transform="rotate(-7.61325 1326.57 1326.57)" stroke="#333279" stroke-width="20" stroke-linecap="round" stroke-linejoin="round" stroke-dasharray="20 40 60 40"/>
<circle cx="1326.57" cy="1326.57" r="943.109" transform="rotate(-7.61325 1326.57 1326.57)" stroke="#272674" stroke-width="20" stroke-linecap="round" stroke-linejoin="round" stroke-dasharray="20 40 60 40"/>
<circle cx="1326.57" cy="1326.57" r="1011.8" transform="rotate(-10.8977 1326.57 1326.57)" stroke="#201F6A" stroke-width="20" stroke-linecap="round" stroke-linejoin="round" stroke-dasharray="60 60 100 40"/>
<circle cx="1326.57" cy="1326.57" r="1082.78" transform="rotate(-7.61325 1326.57 1326.57)" stroke="#201F67" stroke-width="20" stroke-linecap="round" stroke-linejoin="round" stroke-dasharray="20 40 60 40"/>
<circle cx="1326.57" cy="1326.57" r="1180.57" transform="rotate(-7.61325 1326.57 1326.57)" stroke="#191855" stroke-width="25" stroke-linecap="round" stroke-linejoin="round" stroke-dasharray="120 60 80 40"/>
<circle cx="1326.57" cy="1326.57" r="1236.59" transform="rotate(-3.85689 1326.57 1326.57)" stroke="#18184C" stroke-width="25" stroke-linecap="round" stroke-linejoin="round" stroke-dasharray="120 60 80 40"/>
<circle cx="1326.57" cy="1326.57" r="628.317" transform="rotate(-7.52663 1326.57 1326.57)" stroke="#555495" stroke-width="20" stroke-linecap="round" stroke-linejoin="round" stroke-dasharray="20 40 60 40"/>
<circle cx="1326.57" cy="1326.57" r="326.094" fill="#EDCBB9"/>
<circle cx="1326.57" cy="1326.57" r="260.875" fill="#FAF9F1"/>
<circle cx="581" cy="1582" r="10" fill="white"/>
<circle cx="669" cy="1105" r="10" fill="white"/>
<circle cx="381" cy="1853" r="10" fill="white"/>
<circle cx="322" cy="1447" r="10" fill="white"/>
<circle cx="2299" cy="2090" r="10" fill="white"/>
<circle cx="2094" cy="1873" r="10" fill="white"/>
<circle cx="2126" cy="1592" r="10" fill="white"/>
<circle cx="1636" cy="1946" r="10" fill="white"/>
<circle cx="2339" cy="1305" r="10" fill="white"/>
<circle cx="2072" cy="1070" r="10" fill="white"/>
<circle cx="2019" cy="1368" r="10" fill="white"/>
<circle cx="807" cy="1785" r="10" fill="white"/>
<circle cx="337" cy="2068" r="10" fill="white"/>
</svg>
